# xmcd
# 
# Track frame offsets:
#     150
#     1645
#     17534
#     30957
#     44974
#     59352
#     72352
#     85934
#     99284
#     114955
#     128063
#     143778
#     162533
#     183522
#     185002
#     200257
#     215981
#     230858
#     246585
#     260639
#     275517
#     290841
#     307740
#     320788
#     336007
# 
# Disc length: 4679
# 
# Revision: 5
# Processed by: cddbd v1.5.2PL0 Copyright (c) Steve Scherf et al.
# Submitted via: fre:ac v1.0.27
# 
DISCID=7c124519
DTITLE=Various Artist - Après Ski-Hits 2019 (3CD XXL Fan Edition) (2018) [Box-Set] [CD 2)
DYEAR=2018
DGENRE=Party
TTITLE0=Intro 3 Après Ski Hits 2019 - Reiss Die Hütte Ab
TTITLE1=Andreas Gabalier - Hallihallo
TTITLE2=DJ Ötzi - Bella Ciao (Silverjam Rmx)
TTITLE3=Die Draufgänger - Cordula Grün
TTITLE4=Phil "The Power" Taylor and Rick Arena - Stand Up If You Love The Darts
TTITLE5=Lorenz Büffel Feat. D Eisbär - Beate, Die Harte
TTITLE6=Honk! - Indianer (Diana Hey)
TTITLE7=Ina Colada and Don Francis - Wir Sind Fürs Partylife Geborn
TTITLE8=Richard Bier - Bierkapitän
TTITLE9=Markus Becker - Bum Bum
TTITLE10=Querbeat - Randale and Hurra
TTITLE11=Paveier - Nie Mehr Alkohol
TTITLE12=Mickie Krause - Reiss Die Hütte Ab! (Chirpy Chirpy Cheep Cheep) [Version 2018]
TTITLE13=Intro 4 Après Ski Hits 2019 - Ich Find Schlager Toll
TTITLE14=Michelle and Matthias Reim - Nicht Verdient
TTITLE15=Maite Kelly - Die Liebe Siegt Sowieso
TTITLE16=Ben Zucker - Der Sonne Entgegen (Anstandslos and Durchgeknallt Remix)
TTITLE17=Vanessa Mai Feat. Olexesh - Wir 2 Immer 1
TTITLE18=Beatrice Egli - Was Geht Ab
TTITLE19=Feuerherz - In Meinen Träumen Ist Die Hölle Los
TTITLE20=Lichtblick - Lichtblick (Rico Bernasconi Remix)
TTITLE21=Kerstin Ott - Regenbogenfarben
TTITLE22=Die Hollerstauden Feat. Tapo and Raya - Luft Und Liebe
TTITLE23=Alpin KG - Made In Tirol
TTITLE24=Voxxclub - 500 Meilen
EXTD=MARO\n
EXTT0=
EXTT1=
EXTT2=
EXTT3=
EXTT4=
EXTT5=
EXTT6=
EXTT7=
EXTT8=
EXTT9=
EXTT10=
EXTT11=
EXTT12=
EXTT13=
EXTT14=
EXTT15=
EXTT16=
EXTT17=
EXTT18=
EXTT19=
EXTT20=
EXTT21=
EXTT22=
EXTT23=
EXTT24=
PLAYORDER=
